<svg xmlns="http://www.w3.org/2000/svg" viewBox="0 0 29.59 23.91"><defs><style>.cls-1{fill:none;stroke:#b8b8b8;stroke-linecap:round;stroke-linejoin:round;stroke-width:0.75px;}.cls-2{fill:#b8b8b8;}</style></defs><title>资源 1</title><g id="图层_2" data-name="图层 2"><g id="文字"><path class="cls-1" d="M23.6,10.45l-.21-.07c-.29-.1-.2-.47,0-1.12a2.84,2.84,0,0,0-.11-2.67C22.15,5.17,19,5.26,17,6.28c-.63.31-1.06.38-1.26.18s-.09-1,.22-1.64a1.88,1.88,0,0,0-.22-1.72,2.65,2.65,0,0,0-2.39-1.21c-1.84,0-5.12,1.76-7.81,4.19C1,10.12.38,13.65.38,15.4.38,18.28,2.32,20.58,6,22a19.36,19.36,0,0,0,7.9,1.49,18.24,18.24,0,0,0,8.67-2.25c3.1-1.65,4.81-3.94,4.81-6.45C27.39,11.63,24.63,10.77,23.6,10.45ZM13.45,21.76c-.45,0-.9.07-1.35.07-4.51,0-8.2-2.23-8.5-5.32a5.36,5.36,0,0,1,2.3-4.62,12,12,0,0,1,6.36-2.42c5.1-.49,9.52,1.86,9.85,5.25S18.56,21.27,13.45,21.76Z"/><path class="cls-1" d="M17.14,15.33c-.4-2.35-2.94-3.88-5.68-3.42a5.44,5.44,0,0,0-3.29,1.84A4,4,0,0,0,7.23,17a4.55,4.55,0,0,0,4.7,3.5,5.84,5.84,0,0,0,1-.08,5.44,5.44,0,0,0,3.29-1.84A4,4,0,0,0,17.14,15.33Z"/><ellipse class="cls-2" cx="10.61" cy="16.98" rx="1.71" ry="1.47" transform="translate(-2.69 2.01) rotate(-9.62)"/><ellipse class="cls-2" cx="13.13" cy="15.3" rx="0.68" ry="0.58" transform="translate(-2.37 2.41) rotate(-9.62)"/><path class="cls-1" d="M22,3.6a3.5,3.5,0,0,1,4,4.78"/><path class="cls-1" d="M23,.49a5.15,5.15,0,0,1,5.84,7"/></g></g></svg>