<?xml version="1.0" encoding="utf-8"?>
<!-- Generator: Adobe Illustrator 21.0.0, SVG Export Plug-In . SVG Version: 6.00 Build 0)  -->
<svg version="1.1" id="图层_1" xmlns="http://www.w3.org/2000/svg" xmlns:xlink="http://www.w3.org/1999/xlink" x="0px" y="0px"
	 viewBox="0 0 231.3 44.3" style="enable-background:new 0 0 231.3 44.3;" xml:space="preserve">
<style type="text/css">
	.st0{fill:#FFFFFF;}
</style>
<title>资源 4</title>
<g id="图层_2">
	<g id="文字">
		<path class="st0" d="M32.3,42.6H0V2.8h32.3V42.6z M5,37.7h22.3V7.8H5V37.7z"/>
		<path class="st0" d="M24,32.2H8.2V13.3H24V32.2z M12.7,27.7h6.8v-10h-6.8V27.7z"/>
		<rect x="48.9" y="1.9" class="st0" width="19.7" height="5"/>
		<rect x="47.9" y="17.6" class="st0" width="21.7" height="5"/>
		<path class="st0" d="M47.1,43.6v-5c2.5,0,4.6-2,4.6-4.6V4.3h5V34C56.7,39.3,52.4,43.6,47.1,43.6z"/>
		<rect x="61" y="4.3" class="st0" width="5" height="39.2"/>
		<path class="st0" d="M98.4,19.5l-4.1-2.8c4.4-6.6,5.4-9,8.4-16.4l4.6,1.8C104.2,9.9,103,12.6,98.4,19.5z"/>
		<rect x="102.7" y="4.8" class="st0" width="11.7" height="5"/>
		<rect x="101.1" y="14.6" class="st0" width="11.3" height="5"/>
		<rect x="100" y="24.3" class="st0" width="13.5" height="5"/>
		<rect x="103.5" y="17" class="st0" width="5" height="22.7"/>
		<path class="st0" d="M100.8,43.4v-5c4.3,0,8.6-0.7,12.7-2.1l2.1,4.5C113.5,41.8,107.2,43.4,100.8,43.4z"/>
		<rect x="114.6" y="17.6" class="st0" width="17.6" height="5"/>
		<rect x="120.6" y="1.9" class="st0" width="5.5" height="41.7"/>
		<path class="st0" d="M69.5,15l-1.8-4.6c0.2-0.1,5.1-2.2,8.5-9.5l4.5,2C76.4,12.1,69.8,14.9,69.5,15z"/>
		<path class="st0" d="M69.5,29.7l-1.8-4.6c0,0,5.5-2.2,10.8-9l3.9,3.1C76.2,27.1,69.7,29.6,69.5,29.7z"/>
		<path class="st0" d="M69.5,44.3l-1.9-4.6c5.2-2.4,9.7-5.9,13.4-10.3l3.8,3.2C80.7,37.6,75.4,41.6,69.5,44.3z"/>
		<path class="st0" d="M150.4,9.7v-5c3.9,0,14.9-0.9,19.4-4.7l3.2,3.8c-2.9,2.5-7.6,4.3-14,5.3C156.1,9.4,153.3,9.7,150.4,9.7z"/>
		<rect x="147.9" y="15.2" class="st0" width="27.3" height="5"/>
		<rect x="145.9" y="23.1" class="st0" width="31.3" height="5"/>
		<path class="st0" d="M153.4,43.4v-5c3.7,0,6.8-3,6.8-6.8v-26h5v26C165.2,38.1,159.9,43.4,153.4,43.4L153.4,43.4z"/>
		<polygon class="st0" points="207.5,43.4 202.6,43.4 202.6,6.2 197.6,6.2 197.6,43.4 192.6,43.4 192.6,1.3 207.5,1.3 		"/>
		<polygon class="st0" points="223.9,43.4 218.9,43.4 218.9,6.2 213.9,6.2 213.9,43.4 208.9,43.4 208.9,1.3 223.9,1.3 		"/>
		<rect x="190.6" y="19.1" class="st0" width="40.7" height="5"/>
	</g>
</g>
</svg>
