<?xml version="1.0" encoding="utf-8"?>
<!-- Generator: Adobe Illustrator 22.1.0, SVG Export Plug-In . SVG Version: 6.00 Build 0)  -->
<svg version="1.1" id="图层_1" x="0px" y="0px"
	 viewBox="0 0 100 100" style="enable-background:new 0 0 100 100;" xml:space="preserve">
<style type="text/css">
	.st0{fill:none;}
	.st1{opacity:0.8;fill:#222222;}
	.st2{fill:#222222;}
	.st3{fill:#FFFFFF;}
	.st4{fill:#E8E8E8;}
	.st5{fill:#232323;}
	.st6{fill:#BCBCBC;}
	.st7{fill:#D52B2A;}
	.st8{fill:#141414;}
	.st9{fill:#E89214;}
	.st10{fill:#474747;}
	.st11{fill:#E0BA7E;}
	.st12{fill:#282828;}
	.st13{fill:#777777;}
	.st14{fill:#F7F7F7;}
	.st15{fill:#36B242;}
	.st16{fill:#3D3D3D;}
	.st17{fill:#F2F2F2;}
</style>
<g>
	<path class="st0" d="M53.7,51.1v24.6c0,1.8,1.4,3.4,3.3,3.4c1.9,0.1,3.5-1.5,3.5-3.4V51h-6.7C53.7,51,53.7,51,53.7,51.1z"/>
	<path class="st1" d="M62.5,51v26.6c0,1.4-1.1,2.5-2.5,2.5c0,0,0,0-0.1,0c-1.3,0-2.4-1.2-2.4-2.5V52.9c0-0.7-0.2-1.3-0.4-1.9H49
		c-0.3,0.6-0.4,1.2-0.4,1.9v24.6c0,6.3,5.1,11.5,11.3,11.6l0.1,0c6.3,0,11.5-5.1,11.5-11.5V51H62.5z"/>
	<path class="st2" d="M56.9,87.3c-6.3-0.1-11.3-5.3-11.3-11.6V51.1c0-2.5,2-4.5,4.5-4.5s4.5,2,4.5,4.5v24.6c0,1.4,1.1,2.5,2.4,2.5
		c0,0,0.1,0,0.1,0c1.4,0,2.5-1.1,2.5-2.5V26.4c0-5.2-4.2-9.5-9.3-9.5l-0.1,0c-5.2,0-9.4,4.2-9.4,9.4V51h-9V26.4
		c0-10.2,8.2-18.6,18.4-18.6l0.1,0c10.2,0,18.4,8.3,18.4,18.4v49.5c0,6.3-5.1,11.5-11.5,11.5L56.9,87.3z"/>
	<path class="st3" d="M50.1,8.7c9.7,0,17.5,7.9,17.5,17.5v49.5c0,5.8-4.7,10.6-10.6,10.6c0,0-0.1,0-0.1,0
		c-5.8-0.1-10.5-4.9-10.5-10.7V51.1c0-2,1.6-3.6,3.6-3.6s3.6,1.6,3.6,3.6v24.6c0,1.8,1.4,3.4,3.3,3.4c0,0,0.1,0,0.1,0
		c1.9,0,3.4-1.5,3.4-3.4V26.4c0-5.7-4.5-10.4-10.2-10.4c0,0-0.1,0-0.1,0c-5.7,0-10.3,4.6-10.3,10.3V51h-7.2V26.4
		C32.6,16.7,40.4,8.8,50.1,8.7C50.1,8.7,50.1,8.7,50.1,8.7 M50.1,6.9v1.8V6.9L50.1,6.9L50.1,6.9L50.1,6.9
		c-10.7,0-19.3,8.8-19.3,19.5V51h10.8V26.3c0-2.3,0.9-4.4,2.5-6c1.6-1.6,3.7-2.5,6-2.5c0,0,0.1,0,0.1,0c4.6,0,8.4,3.9,8.4,8.6v49.4
		c0,0.9-0.7,1.6-1.6,1.6c0,0,0,0,0,0c-0.8,0-1.5-0.8-1.5-1.6V51.1c0-3-2.4-5.4-5.4-5.4s-5.4,2.4-5.4,5.4v24.6c0,3.3,1.3,6.4,3.6,8.8
		c2.3,2.4,5.4,3.7,8.7,3.7c0,0,0.1,0,0.1,0c6.8,0,12.4-5.5,12.4-12.4V26.3C69.4,15.6,60.7,6.9,50.1,6.9L50.1,6.9z"/>
	<g>
		<circle class="st3" cx="41.9" cy="30.8" r="13.4"/>
		<circle class="st3" cx="41.9" cy="30.8" r="12.2"/>
		<path class="st2" d="M41.9,43.7c-7.1,0-12.8-5.8-12.8-12.8S34.9,18,41.9,18s12.8,5.8,12.8,12.8S49,43.7,41.9,43.7z M41.9,19.2
			c-6.4,0-11.6,5.2-11.6,11.6s5.2,11.6,11.6,11.6s11.6-5.2,11.6-11.6S48.3,19.2,41.9,19.2z"/>
		<circle class="st2" cx="39.1" cy="33.3" r="4.7"/>
		<path class="st4" d="M46.3,20c-1.4-0.6-2.8-0.9-4.4-0.9c-6.4,0-11.6,5.2-11.6,11.6C33.3,25.9,37.6,21.5,46.3,20z"/>
		<circle class="st3" cx="36.5" cy="34.9" r="1.7"/>
	</g>
</g>
</svg>
