<svg xmlns="http://www.w3.org/2000/svg" xmlns:xlink="http://www.w3.org/1999/xlink" viewBox="0 0 1920 1080">
  <defs>
    <style>
      .cls-1 {
        clip-path: url(#clip-Invitation-Signup);
      }

      .cls-2, .cls-5 {
        fill: #222;
      }

      .cls-3 {
        opacity: 0.195;
      }

      .cls-4 {
        fill: none;
      }

      .cls-5 {
        opacity: 0.8;
      }

      .cls-6 {
        fill: #fff;
      }

      .cls-7 {
        fill: #e8e8e8;
      }
    </style>
    <clipPath id="clip-Invitation-Signup">
      <rect width="1920" height="1080"/>
    </clipPath>
  </defs>
  <g id="Invitation-Signup" class="cls-1">
    <rect class="cls-6" width="1920" height="1080"/>
    <g id="BG">
      <rect id="_282828" data-name="282828" class="cls-2" width="1920" height="1080"/>
    </g>
    <g id="Group_2" data-name="Group 2" class="cls-3" transform="matrix(0.454, -0.891, 0.891, 0.454, -779.549, 1401.129)">
      <g id="回形针手册-logo" transform="translate(400 1136.469) rotate(-47)">
        <path id="Path_1" data-name="Path 1" class="cls-4" d="M0,1.744V430.8c0,31.394,24.418,59.3,57.556,59.3,33.138,1.744,61.044-26.162,61.044-59.3V0H1.744C0,0,0,0,0,1.744Z" transform="translate(439.519 769.159)"/>
        <path id="Path_2" data-name="Path 2" class="cls-5" d="M242.433,0V463.937a43.18,43.18,0,0,1-43.6,43.6h-1.744c-22.674,0-41.859-20.929-41.859-43.6V33.138c0-12.209-3.488-22.674-6.976-33.138H6.976C1.744,10.465,0,20.929,0,33.138V462.193c0,109.88,88.95,200.574,197.086,202.318h1.744c109.88,0,200.574-88.95,200.574-200.574V0Z" transform="translate(350.569 769.159)"/>
        <path id="Path_3" data-name="Path 3" class="cls-2" d="M437.775,1386.578c-109.88-1.744-197.086-92.439-197.086-202.318V755.205a78.486,78.486,0,0,1,156.971,0V1184.26c0,24.418,19.185,43.6,41.859,43.6h1.744a43.179,43.179,0,0,0,43.6-43.6V324.407c0-90.694-73.253-165.692-162.2-165.692h-1.744A163.758,163.758,0,0,0,156.971,322.663v430.8H0V324.407C0,146.506,143.018,0,320.919,0h1.744c177.9,0,320.919,144.762,320.919,320.919V1184.26c0,109.88-88.95,200.574-200.574,200.574Z" transform="translate(57.556 15.697)"/>
        <path id="Path_4" data-name="Path 4" class="cls-6" d="M336.616,31.394c169.18,0,305.222,137.786,305.222,305.222v863.341c0,101.159-81.974,184.877-184.877,184.877h-1.744c-101.159-1.744-183.133-85.462-183.133-186.621V770.9a62.788,62.788,0,1,1,125.577,0v429.054c0,31.394,24.418,59.3,57.556,59.3h1.744a58.811,58.811,0,0,0,59.3-59.3V340.1c0-99.415-78.486-181.389-177.9-181.389h-1.744A179.389,179.389,0,0,0,156.971,338.36v430.8H31.394V340.1c0-169.18,136.042-306.966,305.222-308.71h0m0-31.394V0h0C149.995,0,0,153.483,0,340.1V769.159H188.365V338.36c0-40.115,15.7-76.741,43.6-104.647s64.533-43.6,104.647-43.6h1.744c80.23,0,146.506,68.021,146.506,149.995v861.6a27.549,27.549,0,0,1-27.906,27.906h0c-13.953,0-26.162-13.953-26.162-27.906V770.9a94.183,94.183,0,1,0-188.365,0v429.054c0,57.556,22.674,111.624,62.788,153.483s94.183,64.532,151.739,64.532H458.7c118.6,0,216.271-95.927,216.271-216.271V338.36C673.232,151.739,521.493,0,336.616,0Z" transform="translate(40.115 0)"/>
        <g id="Group_1" data-name="Group 1" transform="translate(0 183.133)">
          <circle id="Ellipse_1" data-name="Ellipse 1" class="cls-6" cx="233.713" cy="233.713" r="233.713"/>
          <circle id="Ellipse_2" data-name="Ellipse 2" class="cls-6" cx="212.783" cy="212.783" r="212.783" transform="translate(20.929 20.929)"/>
          <path id="Path_5" data-name="Path 5" class="cls-2" d="M223.248,448.24C99.415,448.24,0,347.081,0,224.992S101.159,0,223.248,0,446.5,101.159,446.5,223.248,347.081,448.24,223.248,448.24Zm0-427.31c-111.624,0-202.318,90.694-202.318,202.318s90.694,202.318,202.318,202.318,202.318-90.694,202.318-202.318S334.872,20.929,223.248,20.929Z" transform="translate(10.465 10.465)"/>
          <circle id="Ellipse_3" data-name="Ellipse 3" class="cls-2" cx="81.974" cy="81.974" r="81.974" transform="translate(102.903 195.342)"/>
          <path id="Path_6" data-name="Path 6" class="cls-7" d="M279.06,15.7A188.777,188.777,0,0,0,202.318,0C90.694,0,0,90.694,0,202.318,52.324,118.6,127.321,41.859,279.06,15.7Z" transform="translate(31.394 29.65)"/>
          <circle id="Ellipse_4" data-name="Ellipse 4" class="cls-6" cx="29.65" cy="29.65" r="29.65" transform="translate(109.88 275.572)"/>
        </g>
      </g>
    </g>
  </g>
</svg>
